<?xml version="1.0" encoding="UTF-8"?>
<!DOCTYPE svg PUBLIC "-//W3C//DTD SVG 1.1//EN" "http://www.w3.org/Graphics/SVG/1.1/DTD/svg11.dtd">
<svg version="1.1" xmlns="http://www.w3.org/2000/svg" xmlns:xlink="http://www.w3.org/1999/xlink" x="0" y="0" width="50" height="50" viewBox="0, 0, 50, 50">
  <g id="Twitter-share-logo" transform="translate(0, 0)">
    <path d="M50,25 C50,38.807 38.807,50 25,50 C11.193,50 -0,38.807 -0,25 C-0,11.193 11.193,-0 25,-0 C38.807,-0 50,11.193 50,25 z" fill="#1DA1F2" id="Oval"/>
    <path d="M19.9,37.441 C31.432,37.441 37.737,28.741 37.737,21.2 C37.737,20.952 37.737,20.703 37.724,20.466 C38.946,19.661 40.012,18.655 40.857,17.507 C39.739,17.957 38.53,18.265 37.256,18.407 C38.556,17.696 39.544,16.584 40.012,15.246 C38.803,15.897 37.464,16.371 36.034,16.631 C34.89,15.518 33.265,14.832 31.458,14.832 C27.999,14.832 25.191,17.389 25.191,20.537 C25.191,20.987 25.243,21.425 25.36,21.839 C20.147,21.603 15.532,19.33 12.437,15.874 C11.904,16.714 11.592,17.696 11.592,18.738 C11.592,20.715 12.697,22.467 14.388,23.485 C13.36,23.461 12.398,23.201 11.553,22.775 C11.553,22.798 11.553,22.822 11.553,22.846 C11.553,25.616 13.711,27.912 16.585,28.445 C16.065,28.575 15.506,28.646 14.934,28.646 C14.531,28.646 14.141,28.61 13.75,28.539 C14.544,30.812 16.858,32.457 19.601,32.505 C17.456,34.032 14.752,34.943 11.813,34.943 C11.306,34.943 10.812,34.92 10.318,34.86 C13.061,36.494 16.364,37.441 19.9,37.441" fill="#FFFFFF" id="Path"/>
  </g>
</svg>
