<svg xmlns="http://www.w3.org/2000/svg" width="18" height="42" viewBox="0 0 18 42">
    <path fill="#313130" fill-rule="nonzero" d="M17.902 10.321c0-.22.013-.444.025-.665A3.88 3.88 0 0 1 18 8.995c-.1-.372-.293-.822-.355-1.265l.048.04-.023-.453-.057.352a.759.759 0 0 1-.138-.241c0-.494-.07-1.193-.464-1.71-.236-.116-.199-.203-.15-.298.047-.095.104-.199-.098-.315.042.014.09 0 .133.016a3.323 3.323 0 0 0-.863-.73c.297-.145-.165-.217 0-.285l-.128.049c.015-.125-.108-.311-.012-.352l-.247-.042.094-.098c-.15-.204-.6-.51-.507-.794a7.108 7.108 0 0 1-.963-.626c-.34-.242-.692-.502-1.019-.703-.147.044-.355-.054-.507-.114l-.098-.225c-.177-.031-.435.088-.543-.07a.051.051 0 0 1 .032-.032c-.178-.035-.305-.175-.51-.086-.158-.06-.294-.175-.253-.286-.052.07-.132.033-.203-.026A1.02 1.02 0 0 1 11 .527l-.107-.035A9.671 9.671 0 0 0 9.463.149 11.368 11.368 0 0 0 5.86.139c-1.338.2-2.62.669-3.77 1.377C1.027 2.186.317 3.032.139 3.68c.029.148-.062.352.103.413-.08.143-.298.027-.227.143.217-.085.195.286.458.265l-.071.11c.046.085.051-.194.147-.05l-.15-.204a.301.301 0 0 1 .262-.009c0-.134-.163-.427.116-.47l-.041.054c.142-.132.193.049.248.054l-.033.025h.202c-.147 0-.178.286-.101.209.216-.083-.084-.01.028-.137.073-.072.133.049.178.11l.138-.117c.066.095-.098.068.032.117.034-.079.073-.156.112-.232.202.213.122-.261.366-.09-.098.145.067.075.097.166.107-.074.211-.153.321-.221.054.015-.04.128 0 .086.105.031.068-.121.103-.14.068.05.253-.147.336.027.291 0-.02-.269.252-.28.082.089-.162.11-.009.175l.208-.148c0 .062.039.192-.057.21a1.39 1.39 0 0 1 .486-.025c.15.017.298.042.444.075.133.028.269.043.405.044a.76.76 0 0 0 .382-.117c.119.108-.029.107-.055.21a.435.435 0 0 1 .5-.068c.156.054.31.146.472.096l-.017-.112c.127.057.263.09.403.097.128.008.257.004.385-.01.267-.047.54-.051.81-.011l-.068-.076c.066-.112.177-.135.271-.186.016.056-.055.244.098.195-.032-.04-.1-.083-.082-.139.304.142.63.23.964.264.38.052.753.15 1.11.291a3.67 3.67 0 0 1 1.335.47c.408.23.765.495 1.111.728-.108-.07.112-.258.15-.145-.054.275.047.321.154.377.106.057.24.093.204.303.19.136.33.33.4.553.073.23.236.42.454.527l-.12.067c-.026.088.066.063.11.123l-.035.014c.02.175.23.316.199.436l.146-.044c.047.098-.095.09.024.165l-.074.02c.06.025.12.05.177.08-.264.063.066.295-.039.413.04.063.101.154.155.258.052.106.08.223.08.34-.128.06-.1.328-.15.503.086.418.104.846.054 1.269h.177v.12c-.039 0-.06.01-.076-.01-.206.081.04.278-.089.366.162-.048.03-.083.04-.15a.106.106 0 0 1 .178.039.104.104 0 0 1-.023.102h-.039l.086.099c-.135 0-.206.073-.343.072.005.183.03.365.075.542.038.184.03.374-.022.554-.142-.069-.02.302-.262.176.051.265.218 0 .38.145-.018.07.038.158-.06.151-.056-.045-.177.025-.177-.036 0 .056 0 .114-.014.175-.023.01-.051-.033-.064-.054.071.37-.3.557-.234.894.087.046.057-.114.144-.068.104.35-.233.226-.178.546l-.11-.095c.06.116.156.188.01.31-.157-.018-.084-.164-.132-.255-.038.1-.075.372.083.332.01.138-.135.144-.195.198.037.014.135-.086.177 0a1.975 1.975 0 0 0-.301.604c-.036-.014-.096-.019-.109-.042.139.23-.188.1-.227.338-.153.618-.295 1.474-.604 2.043.132.205.054.392.013.594l-.256-.095.01.188c-.102.026 0-.139-.136-.074l.128.13c-.09-.033-.268.383-.305.028l-.32.622c-.078.134.162.176.025.302-.087 0-.021-.079-.115-.109-.414.366.202.76-.128 1.132l-.014-.053c.028.104-.052.239-.018.257.273.068-.092-.143.119-.2.2.114.026.217.188.287-.126.062-.04.176-.071.273-.206.084-.222.351-.442.376.027.105.186.288.114.45-.22.031-.14-.104-.28.019l.106.086c-.084.116-.107.079-.16.046-.075.131.106.195-.059.325l-.067-.153a.794.794 0 0 1-.165.351c-.068-.038-.027-.105.02-.146-.226 0 0 .2-.052.241.058.012.145-.097.232.023-.067.074.066.265-.106.255l-.066-.151c0 .226.1.175-.055.35 0-.015-.035-.025-.057-.043.084.209-.142.31-.254.497l-.012-.053c0 .099.083.195.053.232.126-.073.146-.026.265.021-.272.046.113.34-.128.517-.066-.039-.119-.137-.012-.176-.16-.175-.325-.28-.345-.472 0 .114-.026.233-.1.175l.178.123c-.023.047-.05.092-.078.136.107.084.252-.01.263.154.01.165-.23-.023-.158.042-.029.234.158.176 0 .341 0-.026-.02-.079 0-.086-.146.095-.14.352-.387.272-.04-.045-.105-.084-.059-.124l.032.02c-.078-.215-.028.09-.163.02.06.069-.044.213-.103.276l.153.044c.264.497-.265-.155-.355.155 0 .226.074-.05.113.11-.087.11-.234.092-.266.299a.482.482 0 0 1-.366.012c0 .139-.241.288-.122.427.227-.116-.066-.265.248-.376l.12.137c-.088.144-.11.373-.22.448a.12.12 0 0 1 .11.034c-.056.24.063.379-.091.56-.151-.044-.064-.151-.03-.246-.178.076-.082.135-.235.316-.128-.05.08-.133-.026-.218l-.082.246-.025-.012c.178.137-.108.163-.122.334-.178.328.069.518.133.785a.16.16 0 0 1-.178-.038c.132-.034.055-.057.016-.113-.037.123-.327.14-.374.035-.036.208.14 0 .145.134l-.144.233c.12.025.178-.047.2.118a.949.949 0 0 1-.157.294c-.04-.046-.178-.04-.117-.137a.155.155 0 0 0-.057.239c.177-.102-.044.293.177.265l-.177.102c.02-.034-.046-.074 0-.115-.178-.038-.021.148-.036.208-.058.037-.147.167-.214.146.017.07-.078.175-.178.147 0 .086.1.06.139.107l-.144.232c-.094-.033-.343-.14-.355-.193.032.134.238.167.154.3-.122-.175-.227.111-.355-.107-.165.013-.28.237-.303.385.088.146.147-.093.278-.012-.14.37.219.592.015.81l.074-.046a.458.458 0 0 0 .044.327c-.143-.136-.55-.065-.656.212.07.067.24-.058.355.057l-.071.186c-.022 0-.038-.028-.046-.063-.029.188-.38.175-.21.318l-.332.02h.14c.07.067 0 .254 0 .306 0 .227-.115.252-.275.288.085 0 .284.018.233.176-.27-.15-.268.232-.405.151-.028.056-.169.107-.062.176l-.162-.104c.228.144.1.341.05.527-.295-.214-.073.176-.401.088.197.153-.076.322.089.453-.059.125-.252 0-.338-.01l.046.1a.179.179 0 0 0-.085.028.682.682 0 0 1 .034-.499l-.131-.103c.234-.218-.015-.589.223-.9a.54.54 0 0 1-.078-.146c0 .014-.034.035-.122.037.067-.088 0-.281.177-.256l.018.024c.178.025-.066-.286.094-.381l-.193.046.042-.176.034.05c-.371-.788.248-1.099-.092-1.837.2.106-.1-.147.126-.144.294-.165-.041-.339-.109-.492a.088.088 0 0 1-.04-.012l.04-.258c.277.175-.225-.2.01-.044.253-.664.084-1.559.223-2.337l-.075.03c.025-.199-.053-.45.073-.596.126-.146-.177-.339-.177-.397-.118-.175.14-.31.124-.24-.027-.176-.28-.352-.158-.6.247-.073-.21-.68.062-.678h-.023c.2-.316-.11-.615.064-.971a.178.178 0 0 1 .039.02l-.41-.352a3.06 3.06 0 0 0-.435-.364 4.57 4.57 0 0 1-.888.288c-.06.037-.119.053-.177.093l-.187.14-.39.26c.042.505.076 1.043.106 1.58l-.355 1.262-.072 3.123.191.236c-.396.592-.028 1.405-.326 2.05l.177.025c0 .186-.11.167-.144.21-.033.88-.02 1.758-.039 2.615 0 .216-.012.429-.021.641-.009.153-.02.306-.028.459l-.04.553a36.277 36.277 0 0 1-.24 2.242c-.073.258-.12.524-.136.792 0 .035 0 .069-.012.104l-.045.009c-.14.175-.078.22 0 .272a2.375 2.375 0 0 1-.06.293c-.039-.017-.076-.042-.106-.056-.03-.014-.09.132-.075.213-.021-.116.076-.151.178-.134-.01.03-.016.06-.025.086l.016.078a.433.433 0 0 0 .01.325l.041-.018c.047.498.047 1 0 1.497l.56-.388-.047.058.39-.324a.157.157 0 0 1-.035.087 3.34 3.34 0 0 1 .776-.62c.254-.148.515-.27.761-.407l-.037.05c.744-.527 1.523-1.1 2.154-1.582l.988-.75.112-.086.068-.054.136-.11.275-.222a15.925 15.925 0 0 1 2.335-1.615c.898-.297 1.51-1.23 2.485-1.64.257.029 1.867-1.304 1.967-1.48l-.323-.028c.568-.536.989-.582 1.42-1.112v.058c.108-.018-.137-.433 1.08-.605l.012.016c.028-.025 0-.058.096-.058h-.228a1.02 1.02 0 0 1 .178-.351.146.146 0 0 1 .1.052l.269-.247.178.042c.044-.127-.178-.325.166-.385-.216-.088.047-.188-.048-.244.027.009.079.017.123.026l.112-.116.062-.07.076-.09a.713.713 0 0 0 .178-.309 4.443 4.443 0 0 1-.508.116 3 3 0 0 1-.657 0c.233-.109.038-.06-.042-.082l.017.049c-.149.052-.227-.048-.307-.032.008.01.016.019.025.026v-.019a.05.05 0 0 1 .027.042c.02.021.026.042-.01.06v-.014a.588.588 0 0 1-.178.121l-.066-.084c.035.227-.778.197-.9.277-.199-.017-.247.225-.435.282-.257.147-.211-.037-.385-.023-.188.056.105.077.048.126l-.267.013c.096-.087 0-.095-.042-.115-.165.099-.533.12-.446.325-.268.07-.32 0-.415.06.053 0 .133 0 .16.028-.139-.014-.025.048.021.039-.071.176-.888.176-.78.38l-.024-.034c.074.16.222.26.19.402l-.105-.019-.046.125c-.092 0-.09-.06-.103-.076-.098.176-.355.24-.549.352l.469.242c-.213.021-.614.039-.554.176l-.177-.064c-.48-.026-.13.259-.304.271l-.254-.03.139-.09c-.159.03-.32.041-.481.032a.036.036 0 0 1 .03.009l-.018.02a.226.226 0 0 1-.119.258c-.163.09-.204.275-.552.302l.046.184-.243.046-.083-.113c.177-.119.479-.402.7-.57l-.035-.055c-.133.097-.248.256-.344.31-.06 0-.257-.029-.234-.164v.175a2.558 2.558 0 0 1-.998.554l.082.028c-.068.1-.137.199-.23.125-.272.189-.593.297-.926.31l.06.162c-.065.036-.303-.102-.193.106l-.084.15c-.088.048-.081.16-.23.15h-.03l.01.01c-.227.075.089.12-.177.194-.137-.046.051.223-.073.267l-.245-.118c-.266.023-.156.24-.424.433a.359.359 0 0 1-.157-.016c.06-.102.103-.218.19-.176-.081-.084.082-.095.038-.206l.058.016-.122-.058c.383-.056.055-.434.404-.514l.011.054v-.114c.06.016.071.068.135.11l.26-.398-.136.031c.04-.093-.04-.214.087-.274.084.264.085-.133.236-.084v.116c.057-.128.057-.128-.067-.176.048-.176.286.018.241-.197l-.064.1a.15.15 0 0 1-.097-.079.148.148 0 0 1-.002-.124c.028 0 .108-.025.094.035.025-.148.19-.3.178-.38a.11.11 0 0 1 .097-.002.107.107 0 0 1 .06.076c.045-.321.09-.107.135-.429l.064.04-.03-.134.217-.051h-.114c.036-.093.018-.176.114-.255l.076.095c.082-.276.327-.193.316-.503.028 0 .04.048.044.074-.037-.302.268-.068.197-.39.027.032.08.03.105.055l-.01-.136.13.081-.155-.188.177.012-.044-.072c.318.032.204-.223.477-.265l-.177-.067c-.153-.553.653-.734.728-1.266l.131.079-.062-.267c.161-.043.085.12.177.126.03-.235-.158-.188-.074-.436.154-.068.078.093.098.176.047-.25.14-.604.296-.717-.016-.012-.036-.035-.048-.031.014-.176.178-.33.25-.492.06.035.05.079.043.126.039-.053.122-.109.083-.19l.087.12c.087-.107.103-.397.256-.351-.06-.013-.16-.072-.098-.176.24.05.062-.329.263-.44.04.046-.014.176 0 .141.1-.054.04-.176.014-.288l.073.067.087-.452c.24.05.163-.384.302-.28.08-.136-.155.071-.085-.119.111 0 .04-.175.177-.103v.026l.053-.128.093.146a.34.34 0 0 0-.165-.325c.127-.064.14-.237.287-.22l.013.053c.094-.31.614-.28.5-.619.027 0 .06.01.041.046l.1-.176.08.093v-.368l.067.038c.141-.238.26-.49.355-.75l.014.053c.034-.322.199-.227.225-.46a.07.07 0 0 1 .02.035l.089-.176.046.074c-.08-.206.385-.278.218-.26-.026-.108-.039-.276-.112-.34.093-.198.112 0 .233-.094.08-.137-.027-.222.133-.382l.068.037c.016-.102.038-.204.065-.304l.014.053c-.04-.274.334-.153.114-.46.1-.058.14-.24.273-.165.042-.267.102-.532.178-.791.247.069.012-.061.22-.151l-.128-.048c.049-.093.108-.18.178-.26.073-.09.156-.175.238-.268.174-.169.31-.372.399-.596l.13.042-.102-.144c.126-.214.267-.462.39-.703.122-.24.23-.481.303-.665-.016-.146-.105-.389.012-.564l.01.026c.027-.384.126-.76.292-1.107.046.04.098.014.117.069-.112-.136.066-.223.094-.304l-.126.065c-.09-.146.075-.264.178-.29l-.09-.213a.106.106 0 0 1 .063-.014l-.06-.05.2-.043c-.021-.05 0-.293-.15-.408.062 0 .15-.15.149-.019.07-.207.149-.411.213-.622l-.086.085c-.135-.02-.177-.23-.09-.315.076.155.177.053.294.02-.051-.104-.133.049-.195-.013-.064-.13-.057-.369.014-.416l.04.077c-.018-.158.225-.176.244-.336-.081-.154.036-.235-.198-.25-.011-.2.177-.045.204-.104a.287.287 0 0 1 .142-.39c-.162-.08-.11-.206-.055-.326.055-.119.11-.233-.03-.27l.177-.146c-.076-.012-.245-.063-.26-.198.095-.116.226-.074.308-.106l-.279-.109c.09-.181.153-.374.19-.573.046-.207.064-.423.078-.643zM1.186 39.46l-.016.123a.136.136 0 0 1 .016-.123zm4.26-3.514a.697.697 0 0 0 .082-.4c.065.011.115.022.16.026.01.033.014.058 0 .066l.072.014a.41.41 0 0 1-.312.285l-.002.009z"/>
</svg>
