<?xml version="1.0" encoding="UTF-8"?>
<!DOCTYPE svg PUBLIC "-//W3C//DTD SVG 1.1//EN" "http://www.w3.org/Graphics/SVG/1.1/DTD/svg11.dtd">
<svg version="1.1" xmlns="http://www.w3.org/2000/svg" xmlns:xlink="http://www.w3.org/1999/xlink" x="0" y="0" width="25.508" height="24.6" viewBox="0, 0, 25.508, 24.6">
  <g id="Share-on-Twitter-Copy-2" transform="translate(-16.135, -9.2)">
    <g id="Speech-bubble">
      <path d="M22.565,30.73 C22.826,30.486 23.218,30.445 23.525,30.63 C25.215,31.652 27.16,32.2 29.188,32.2 C35.185,32.2 40.043,27.407 40.043,21.5 C40.043,15.593 35.185,10.8 29.188,10.8 C23.19,10.8 18.333,15.593 18.333,21.5 C18.333,23.988 19.196,26.344 20.753,28.236 C20.914,28.431 20.973,28.69 20.913,28.935 C20.613,30.156 20.059,31.154 19.261,31.914 C20.628,31.919 21.72,31.519 22.565,30.73 z M16.748,33.188 C15.978,33.004 15.916,31.931 16.66,31.659 C17.977,31.178 18.828,30.286 19.256,28.923 C17.63,26.806 16.733,24.22 16.733,21.5 C16.733,14.704 22.311,9.2 29.188,9.2 C36.064,9.2 41.643,14.704 41.643,21.5 C41.643,28.296 36.064,33.8 29.188,33.8 C27.064,33.8 25.016,33.273 23.198,32.287 C21.562,33.533 19.389,33.821 16.748,33.188 z" fill="#FFFFFF" id="Combined-Shape"/>
      <path d="M23.216,18.858 L23.216,17.458 L35.22,17.458 L35.22,18.858 L23.216,18.858 z M23.216,17.458 L35.22,17.458 L35.22,18.858 L23.216,18.858 L23.216,17.458 z M23.216,22.2 L23.216,20.8 L35.22,20.8 L35.22,22.2 L23.216,22.2 z M23.216,20.8 L35.22,20.8 L35.22,22.2 L23.216,22.2 L23.216,20.8 z M23.216,25.542 L23.216,24.142 L35.22,24.142 L35.22,25.542 L23.216,25.542 z M23.216,24.142 L35.22,24.142 L35.22,25.542 L23.216,25.542 L23.216,24.142 z" fill="#FFFFFF" id="Combined-Shape"/>
    </g>
  </g>
</svg>
