<?xml version="1.0" encoding="UTF-8"?>
<!DOCTYPE svg PUBLIC "-//W3C//DTD SVG 1.1//EN" "http://www.w3.org/Graphics/SVG/1.1/DTD/svg11.dtd">
<svg version="1.1" xmlns="http://www.w3.org/2000/svg" xmlns:xlink="http://www.w3.org/1999/xlink" x="0" y="0" width="50" height="50" viewBox="0, 0, 50, 50">
  <defs>
    <radialGradient id="Gradient_1" gradientUnits="userSpaceOnUse" cx="58.684" cy="-465.726" r="72.305" gradientTransform="matrix(0.999, -0.052, 0.044, 0.849, -36.974, 443.801)">
      <stop offset="0" stop-color="#FED576"/>
      <stop offset="0.263" stop-color="#F47133"/>
      <stop offset="0.609" stop-color="#BC3081"/>
      <stop offset="1" stop-color="#4C63D2"/>
    </radialGradient>
    <radialGradient id="Gradient_2" gradientUnits="userSpaceOnUse" cx="48.342" cy="-253.624" r="37.129" gradientTransform="matrix(0.999, -0.052, 0.044, 0.849, -24.362, 253.295)">
      <stop offset="0" stop-color="#FED576"/>
      <stop offset="0.263" stop-color="#F47133"/>
      <stop offset="0.609" stop-color="#BC3081"/>
      <stop offset="1" stop-color="#4C63D2"/>
    </radialGradient>
  </defs>
  <g id="Symbol">
    <g>
      <path d="M8.628,1.311 C6.982,1.952 5.589,2.805 4.197,4.198 C2.805,5.58 1.951,6.983 1.311,8.62 C0.691,10.205 0.274,12.025 0.152,14.688 C0.03,17.351 0,18.205 0,24.995 C0,31.785 0.03,32.639 0.152,35.302 C0.274,37.965 0.701,39.785 1.311,41.37 C1.951,43.017 2.805,44.409 4.197,45.802 C5.589,47.195 6.982,48.048 8.628,48.689 C10.213,49.309 12.033,49.726 14.695,49.848 C17.358,49.97 18.211,50 25,50 C31.789,50 32.642,49.97 35.305,49.848 C37.967,49.726 39.787,49.299 41.372,48.689 C43.018,48.048 44.411,47.195 45.803,45.802 C47.195,44.409 48.049,43.017 48.689,41.37 C49.309,39.785 49.726,37.965 49.848,35.302 C49.97,32.639 50,31.785 50,24.995 C50,18.205 49.97,17.351 49.848,14.688 C49.726,12.025 49.299,10.205 48.689,8.62 C48.049,6.983 47.195,5.58 45.813,4.198 C44.421,2.805 43.028,1.952 41.382,1.311 C39.797,0.691 37.978,0.274 35.315,0.152 C32.652,0.03 31.799,-0 25.01,-0 C18.222,-0 17.368,0.03 14.705,0.152 C12.033,0.264 10.213,0.691 8.628,1.311 z M35.102,4.645 C37.541,4.757 38.862,5.164 39.746,5.509 C40.915,5.967 41.748,6.505 42.622,7.38 C43.496,8.254 44.035,9.087 44.492,10.256 C44.837,11.14 45.244,12.462 45.356,14.901 C45.478,17.534 45.498,18.327 45.498,25.005 C45.498,31.683 45.467,32.476 45.356,35.109 C45.244,37.548 44.837,38.87 44.492,39.754 C44.035,40.923 43.496,41.756 42.622,42.631 C41.748,43.505 40.915,44.044 39.746,44.501 C38.862,44.847 37.541,45.253 35.102,45.365 C32.47,45.487 31.677,45.507 25,45.507 C18.323,45.507 17.53,45.477 14.898,45.365 C12.459,45.253 11.138,44.847 10.254,44.501 C9.085,44.044 8.252,43.505 7.378,42.631 C6.504,41.756 5.965,40.923 5.508,39.754 C5.163,38.87 4.756,37.548 4.644,35.109 C4.522,32.476 4.502,31.683 4.502,25.005 C4.502,18.327 4.533,17.534 4.644,14.901 C4.756,12.462 5.163,11.14 5.508,10.256 C5.965,9.087 6.504,8.254 7.378,7.38 C8.252,6.505 9.085,5.967 10.254,5.509 C11.138,5.164 12.459,4.757 14.898,4.645 C17.53,4.523 18.323,4.503 25,4.503 C31.677,4.503 32.47,4.523 35.102,4.645 z" fill="url(#Gradient_1)"/>
      <path d="M12.165,25.005 C12.165,32.1 17.917,37.843 25,37.843 C32.083,37.843 37.835,32.09 37.835,25.005 C37.835,17.92 32.093,12.167 25,12.167 C17.907,12.167 12.165,17.91 12.165,25.005 z M33.333,25.005 C33.333,29.61 29.604,33.34 25,33.34 C20.396,33.34 16.667,29.61 16.667,25.005 C16.667,20.4 20.396,16.67 25,16.67 C29.604,16.67 33.333,20.4 33.333,25.005 z" fill="url(#Gradient_2)"/>
      <path d="M41.352,11.659 C41.352,13.315 40.009,14.657 38.354,14.657 C36.698,14.657 35.356,13.315 35.356,11.659 C35.356,10.003 36.698,8.66 38.354,8.66 C40.009,8.66 41.352,10.003 41.352,11.659 z" fill="#654C9F"/>
    </g>
  </g>
</svg>
