<?xml version="1.0" encoding="UTF-8"?>
<!DOCTYPE svg PUBLIC "-//W3C//DTD SVG 1.1//EN" "http://www.w3.org/Graphics/SVG/1.1/DTD/svg11.dtd">
<svg version="1.1" xmlns="http://www.w3.org/2000/svg" xmlns:xlink="http://www.w3.org/1999/xlink" x="0" y="0" width="24.821" height="19.585" viewBox="0, 0, 24.821, 19.585">
  <g id="Share-on-Twitter" transform="translate(-45.261, -12.864)">
    <path d="M53.049,32.449 C62.422,32.449 67.547,24.912 67.547,18.38 C67.547,18.165 67.547,17.95 67.536,17.745 C68.529,17.047 69.396,16.176 70.083,15.181 C69.174,15.571 68.191,15.837 67.156,15.96 C68.212,15.345 69.015,14.381 69.396,13.223 C68.413,13.787 67.325,14.197 66.162,14.422 C65.233,13.458 63.912,12.864 62.443,12.864 C59.632,12.864 57.35,15.079 57.35,17.806 C57.35,18.196 57.392,18.575 57.487,18.934 C53.25,18.729 49.499,16.76 46.984,13.766 C46.551,14.494 46.297,15.345 46.297,16.248 C46.297,17.96 47.195,19.478 48.569,20.359 C47.734,20.339 46.952,20.113 46.265,19.744 C46.265,19.765 46.265,19.785 46.265,19.806 C46.265,22.205 48.019,24.194 50.355,24.656 C49.932,24.769 49.478,24.83 49.013,24.83 C48.685,24.83 48.368,24.799 48.051,24.738 C48.696,26.707 50.577,28.132 52.806,28.173 C51.063,29.496 48.865,30.285 46.477,30.285 C46.065,30.285 45.663,30.265 45.261,30.213 C47.491,31.628 50.175,32.449 53.049,32.449" fill="#FFFFFF" id="Path"/>
  </g>
</svg>
